<?xml version="1.0" encoding="utf-8"?>
<!-- Generator: Adobe Illustrator 22.1.0, SVG Export Plug-In . SVG Version: 6.00 Build 0)  -->
<svg version="1.1" id="Layer_1" xmlns="http://www.w3.org/2000/svg" xmlns:xlink="http://www.w3.org/1999/xlink" x="0px" y="0px"
	 viewBox="0 0 500 138" style="enable-background:new 0 0 500 138;" xml:space="preserve">
<style type="text/css">
	.st0{fill:#EF3D26;}
	.st1{fill:#26255E;}
</style>
<g>
	<path class="st0" d="M449.9,97.1l-2.6,2.6c-1,1-2.7,1-3.7,0c-1-1-1-2.7,0-3.7l2.6-2.6c1-1,2.7-1,3.7,0
		C451,94.5,451,96.1,449.9,97.1z M433.3,95.3L433.3,95.3c-1-1-2.7-1-3.7,0l-2.6,2.6c-1,1-1,2.7,0,3.7l0,0c1,1,2.7,1,3.7,0l2.6-2.6
		C434.4,98,434.4,96.3,433.3,95.3z M465.5,81.5c0.1-0.1,0.2-0.2,0.3-0.3c5.1-5.1,5.1-13.4,0-18.4c-5.1-5.1-13.4-5.1-18.4,0
		c-0.2,0.2-0.3,0.3-0.5,0.5c-0.1,0.1-0.2,0.1-0.2,0.2l-14,14c-1,1-1,2.7,0,3.7c1,1,2.7,1,3.7,0l5.9-5.9c1-1,2.7-1,3.7,0l0,0
		c1,1,1,2.7,0,3.7l-0.2,0.2l-10.5,10.5c-1,1-1,2.7,0,3.7l0,0c1,1,2.7,1,3.7,0l10.7-10.7c1-1,2.7-1,3.7,0l0,0c1,1,1,2.7,0,3.7l0,0
		l0,0l-1.5,1.5c-1,1-1,2.7,0,3.7c1,1,2.7,1,3.7,0L465.5,81.5C465.5,81.6,465.5,81.6,465.5,81.5z"/>
	<path class="st1" d="M5.4,18c0-8,6.4-14.4,14.4-14.4c8,0,14.4,6.4,14.4,14.4c0,8-6.4,14.4-14.4,14.4C11.8,32.4,5.4,26,5.4,18z
		 M482.4,46.2c-14.1-14.1-37.1-14.1-51.2,0c-9.5,9.5-12.6,22.9-9.4,35l22.1-22.1l0,0c0,0,0,0,0,0c7.1-7.1,18.5-7.1,25.6,0
		c7.1,7.1,7.1,18.5,0,25.6c0,0,0,0,0,0l0,0l-22.1,22.1c12.1,3.2,25.5,0.1,35-9.4C496.5,83.3,496.5,60.4,482.4,46.2z M10,37.4H9.8
		C9.9,37.4,9.9,37.4,10,37.4L10,37.4z M390.2,60.2c-6.9-1-8.9-1.3-8.9-3.1c0-1.6,2.7-2.9,6.4-2.9c6.2,0,12.5,2.2,16.9,4.8
		c1.9,0.9,4.2,0.3,5.4-1.3l5.4-9.5c1-1.9,0.5-4.3-1.2-5.5c-7.5-4.2-16.6-6.9-26.6-6.9c-20,0-30.9,11.2-30.9,23.6
		c0,19.3,17.9,21.7,29.4,23.3c5.6,0.7,9.7,1.3,9.7,3.4c0,1.7-1.6,3-6.9,3c-6.4,0-15.6-3.1-21.6-6.5c-1.9-0.9-4.2-0.3-5.4,1.4
		l-6.4,10.8c-0.8,1.8-0.2,4,1.4,5.2c7.8,4.9,19.6,8.3,30.8,8.3c2.6,0,5.2-0.2,7.5-0.5l25.2-25.2C419.3,64.4,401.4,61.8,390.2,60.2z
		 M350.9,102.1V15.5c0-2.4-1.9-4.4-4.3-4.4v0h-17c-2.4,0-4.3,1.9-4.3,4.3v0.8l0,0v85.1l0,0v0.7c0,2.4,1.9,4.4,4.3,4.4v0h17
		C349,106.5,350.9,104.5,350.9,102.1z M316.3,42.5v-0.7c0-2.4-1.9-4.4-4.3-4.4v0h-17c-2.4,0-4.3,1.9-4.3,4.3V80
		c-2.1,2.4-5.1,5.4-10.9,5.4c-6.3,0-10-2.7-10-9.7V41.8c0-2.4-1.9-4.4-4.3-4.4v0h-17c-2.4,0-4.3,1.9-4.3,4.3v45
		c0,11.9,6.9,21.4,22.9,21.4c12.2,0,19.7-5,23.7-9.4v3.3c0,2.4,1.9,4.3,4.2,4.4h17.4c2.3-0.1,4.1-2,4.1-4.3v-0.8l0,0V42.5
		L316.3,42.5z M155.5,102.1V56.4c0-14.3-8.6-20.7-21.3-20.7c-11.2,0-20.2,6.1-24.2,12.2c-3.1-8.6-10.1-12.2-19.9-12.2
		c-11.2,0-19.9,5.7-22.9,9.6v-2.7h0v-0.7c0-2.4-1.9-4.4-4.3-4.4v0h-17c-2.4,0-4.3,1.9-4.3,4.3v60.3c0,2.4,1.9,4.4,4.3,4.4v0h17
		c2.4,0,4.3-1.9,4.3-4.3v-0.8h0V63.9c1.7-2,4.9-5.4,10.4-5.4c5.9,0,7.9,3.6,7.9,7.7v35.9c0,2.4,1.9,4.4,4.3,4.4v0h17
		c2.4,0,4.3-1.9,4.3-4.3V63.9c1.7-2,4.9-5.4,10.6-5.4c5.7,0,7.9,3.6,7.9,7.7v35.9c0,2.4,1.9,4.4,4.3,4.4v0h17
		C153.6,106.5,155.5,104.5,155.5,102.1z M239.8,71.9c0,23.7-13.2,36.3-30.3,36.3c-7.1,0-13.7-2.4-19.4-9v29.2c0,2.4-1.9,4.3-4.3,4.3
		h-17v0c-2.4,0-4.3-2-4.3-4.4v-0.7l0,0V42.5l0,0v-0.8c0-2.4,1.9-4.3,4.3-4.3h17v0c2.4,0,4.3,2,4.3,4.4v2.9c5.6-6.6,12.3-9,19.4-9
		C226.7,35.7,239.8,48.3,239.8,71.9z M213.5,71.9c0-8.6-6-13.4-12.9-13.4c-3.3,0-8.1,1.7-10.6,4.7v17.6c2.3,2.9,7.3,4.7,10.6,4.7
		C207.5,85.5,213.5,80.6,213.5,71.9z M32.7,102.1V41.8c0-2.4-1.9-4.4-4.3-4.4v0h-17c-2.4,0-4.3,1.9-4.3,4.3v60.3
		c0,2.4,1.9,4.4,4.3,4.4v0h17C30.8,106.5,32.7,104.5,32.7,102.1z"/>
</g>
</svg>
